<svg xmlns="http://www.w3.org/2000/svg" id="Layer_1" x="0" y="0" version="1.1" viewBox="0 0 182.3 85" xml:space="preserve"><style>.st0{fill:#0055a4}.st1{fill:#faa634}</style><g id="XMLID_69_"><path d="M10.8 35.5H.8v10h10v-10zm0 17.5H.8v10h10V53zm0 17.4H.8v10h10v-10zm14.9-52.3h-10v10h10v-10zm0 17.4h-10v10h10v-10zm0 27.4V53h-10v10" class="st0"/><path id="XMLID_53_" d="M.9.6h10v10H.9z" class="st1"/><path id="XMLID_52_" d="M15.8.6h10v10h-10z" class="st1"/><path id="XMLID_51_" d="M.8 18.1h10v10H.8z" class="st1"/><path id="XMLID_50_" fill="#f7a800" d="M25.7 18.1s-6.9 5.1-10 10v-10h10z"/><g id="XMLID_388_"><path id="XMLID_426_" d="M121.6 81.5h-1c-1.2 0-1.9-.3-2.2-1.1-.3.7-1.1 1.1-2.2 1.1-1.9 0-2.9-1.1-2.9-3.5 0-2.2 1-3.3 2.9-3.3h3.1v4c0 1 .5 1.5 1.5 1.5h.9v1.3zm-3.8-5.6h-1.5c-.6 0-1 .2-1.2.6-.2.3-.3.9-.3 1.6 0 .7.1 1.3.3 1.6.2.4.6.6 1.2.6s1-.2 1.2-.6c.2-.3.3-.9.3-1.6v-2.2zm-1.3-3.3c0 .4-.4.8-.8.8s-.8-.4-.8-.8.4-.8.8-.8.8.4.8.8zm2 0c0 .4-.4.8-.8.8s-.8-.4-.8-.8.3-.8.8-.8c.4 0 .8.4.8.8z" class="st0"/><path id="XMLID_424_" d="M124 81.5h-2.8v-1.3h2.8v1.3z" class="st0"/><path id="XMLID_422_" d="M126.5 81.5h-2.8v-1.3h2.8v1.3z" class="st0"/><path id="XMLID_420_" d="M128.9 81.5h-2.8v-1.3h2.8v1.3z" class="st0"/><path id="XMLID_416_" d="M132.5 78.9c0 .8-.3 1.4-.8 1.9s-1.2.8-2.1.8h-1.2v-1.2h1.1c1 0 1.5-.5 1.5-1.5v-3.6l1.4-.4v4zm-2.3 4.7c0 .4-.4.8-.8.8s-.8-.4-.8-.8.4-.8.8-.8c.4.1.8.4.8.8zm2 0c0 .4-.3.8-.8.8-.4 0-.8-.4-.8-.8s.4-.8.8-.8c.5.1.8.4.8.8z" class="st0"/><path id="XMLID_414_" d="M138.4 81.1c0 1-.3 1.8-.9 2.4-.6.6-1.4.9-2.5.9-.6 0-1.2-.1-1.6-.4l-.7-1.4c.7.4 1.4.6 2.3.6 1.2 0 2-.8 2-2v-6l1.4-.4v6.3z" class="st0"/><path id="XMLID_412_" d="M143.3 81.5h-1.6c-1.3 0-2-.8-2-1.9v-7.3l1.4-.5v7.7c0 .5.2.7.7.7h1.4v1.3z" class="st0"/><path id="XMLID_410_" d="M145.7 81.5h-2.8v-1.3h2.8v1.3z" class="st0"/><path id="XMLID_408_" d="M148.1 81.5h-2.8v-1.3h2.8v1.3z" class="st0"/><path id="XMLID_406_" d="M150.5 81.5h-2.8v-1.3h2.8v1.3z" class="st0"/><path id="XMLID_404_" d="M153 81.5h-2.8v-1.3h2.8v1.3z" class="st0"/><path id="XMLID_402_" d="M155.4 81.5h-2.8v-1.3h2.8v1.3z" class="st0"/><path id="XMLID_400_" d="M157.8 81.5H155v-1.3h2.8v1.3z" class="st0"/><path id="XMLID_395_" d="M165.8 81.5h-3.3c-.3 0-.6 0-.9-.1-.3.1-.6.1-.9.1h-3.3v-1.2h2.2c-.6-.7-.9-1.4-.9-2.1 0-.9.2-1.7.6-2.3.5-.7 1.3-1.1 2.4-1.1 1.1 0 1.8.4 2.4 1.1.4.6.6 1.4.6 2.3 0 .7-.3 1.5-1 2.1h2.2v1.2zm-4.4-8.9c0 .4-.4.8-.8.8s-.8-.4-.8-.8.4-.8.8-.8.8.4.8.8zm.3 3.4c-1 0-1.6.8-1.6 1.9 0 .5.1 1 .4 1.4.3.5.7.8 1.2 1 .5-.2.9-.5 1.2-1 .3-.4.4-.9.4-1.4-.1-1.1-.6-1.9-1.6-1.9zm1.7-3.4c0 .4-.4.8-.8.8s-.8-.4-.8-.8.4-.8.8-.8.8.4.8.8z" class="st0"/><path id="XMLID_393_" d="M173.8 81.5h-8.3v-1.3h1.7v-2.6c0-.8.3-1.6.8-2.1.5-.6 1.3-.8 2.2-.8.8 0 1.5.3 2.1.9l-1.1 1c-.4-.4-.8-.6-1.2-.6-.9 0-1.4.6-1.4 1.5v2.8h5.2v1.2z" class="st0"/><path id="XMLID_391_" d="M177.2 78.9c0 .8-.3 1.4-.8 1.9s-1.2.8-2.1.8h-1v-1.3h.9c1 0 1.5-.5 1.5-1.5v-6.5l1.4-.4v7z" class="st0"/><path id="XMLID_389_" d="M180 81.5h-1.4v-9.3l1.4-.5v9.8z" class="st0"/></g><path d="M112.2 63.6h-5.6c-4.5 0-6.9-2.7-6.9-6.8V31.3l5-1.6v26.9c0 1.7.8 2.5 2.6 2.5h4.9v4.5z" class="st0"/><path d="M120.6 63.6h-9.7v-4.4h9.7v4.4z" class="st0"/><path d="M129.1 63.6h-9.7v-4.4h9.7v4.4z" class="st0"/><path d="M169.8 54.5c0 5.4-3.8 9-9.9 9h-32.1v-4.4h6.2V45.9l5-1.4v14.8h10.3V43.6l5-1.5v17h5.4c3.4 0 5.1-1.7 5.1-5.1V41.3l5-1.5v14.7zM181.2 27.7h-8.7l1.1-1.8h1.5v-1c0-2.4 1.1-3.6 3.4-3.6.9 0 1.7.4 2.4 1.1l-1.2 1.5c-.4-.5-.8-.8-1.4-.8-.8 0-1.3.6-1.3 1.8v1h4.1v1.8zm-1.7 35.9h-5V31.3l5-1.6v33.9z" class="st0"/><g><path d="M91.7 47.9c0 5.4-3.8 9-9.9 9H61.1C60.6 63.6 56 67 47 67c-6.3 0-10.5-1.9-12.8-5.8C32.6 58.4 31.9 54 32 48l4.9-1.5v4.6c0 8.2 2.8 11.4 10.2 11.4 6 0 9-2.4 9-7.1V39.7l5-1.5v14.4h10.1V37l5-1.5v17h5.4c3.4 0 5.1-1.7 5.1-5.1V34.6l5-1.5v14.8z" class="st0"/></g><g><path id="XMLID_17_" d="M68.7 16.1c0 1.5-.5 2.7-1.5 3.5-1 .8-2.4 1.2-4.1 1.2H54V18h9.7c.5 0 1-.2 1.4-.5.4-.4.6-.8.6-1.4 0-.5-.2-.9-.6-1.3-.4-.4-.8-.6-1.4-.6h-5c-1 0-1.9-.1-2.6-.4-.7-.3-1.3-.6-1.7-1.1-.4-.4-.8-.9-1-1.5-.2-.5-.3-1.1-.3-1.6 0-.6.1-1.2.3-1.8.2-.6.5-1.1 1-1.5.5-.4 1-.8 1.7-1 .7-.2 1.6-.4 2.6-.4h8.9v2.8h-9.4c-.6 0-1 .2-1.4.6-.4.4-.6.8-.6 1.3s.2 1 .6 1.3c.4.4.9.5 1.5.5h4.9c1.7 0 3.1.4 4.1 1.2 1 .8 1.5 1.9 1.5 3.4v.1z" class="st0"/><path id="XMLID_16_" d="M85 20.7L80 8.1c-.1-.1-.1-.3-.3-.3-.1-.1-.3-.1-.4-.1-.3 0-.6.1-.7.4l-5 12.6h-3.3L75.8 7c.3-.7.7-1.2 1.3-1.5.6-.3 1.3-.5 2.1-.5s1.5.2 2.1.5c.6.3 1.1.8 1.3 1.5l5.5 13.7H85z" class="st0"/><path id="XMLID_15_" d="M48.7 20.7l-5-12.6c-.1-.1-.1-.3-.3-.3-.1-.1-.3-.1-.4-.1-.3 0-.6.1-.7.4l-5 12.6H34L39.5 7c.3-.7.7-1.2 1.3-1.5.6-.3 1.3-.5 2.1-.5s1.5.2 2.1.5c.6.3 1.1.8 1.3 1.5L52 20.7h-3.3z" class="st0"/><path id="XMLID_14_" d="M105.6 16.1c0 1.5-.5 2.7-1.5 3.5-1 .8-2.4 1.2-4.1 1.2h-9.1V18h9.7c.5 0 1-.2 1.4-.5.4-.4.6-.8.6-1.4 0-.5-.2-.9-.6-1.3-.4-.4-.8-.6-1.4-.6h-5c-1 0-1.9-.1-2.6-.4-.7-.3-1.3-.6-1.7-1.1-.4-.4-.8-.9-1-1.5-.2-.5-.3-1.1-.3-1.6 0-.6.1-1.2.3-1.8.2-.6.5-1.1 1-1.5.5-.4 1-.8 1.7-1 .7-.2 1.6-.4 2.6-.4h8.9v2.8H95c-.5 0-1 .2-1.4.6-.4.3-.6.7-.6 1.2s.2 1 .6 1.3c.4.4.9.5 1.5.5h4.9c1.7 0 3.1.4 4.1 1.2 1 .8 1.5 1.9 1.5 3.4v.2z" class="st0"/></g><g><path d="M25.6 80.5h-.4c-.9 0-1.3-.3-1.8-1-.3-.5-.7-1.1-1-1.7-.2-.3-.4-.4-.9-.4h-.3v1.7c0 .9.1 1 .9 1v.3h-2.8v-.3c.9-.1.9-.1.9-1v-4.2c0-.9-.1-.9-.9-1v-.3H22c.8 0 1.3.1 1.7.4.4.3.7.7.7 1.4 0 .9-.6 1.5-1.3 1.8.2.3.6 1 .9 1.5.4.6.6.8.8 1.1.3.3.5.4.7.5l.1.2zm-3.8-3.4c.5 0 .9-.1 1.1-.3.4-.3.6-.7.6-1.3 0-1.1-.7-1.6-1.5-1.6-.3 0-.5 0-.6.1-.1.1-.1.2-.1.5v2.6h.5zM32.9 78.8c-.1.4-.3 1.4-.4 1.7h-5.1v-.3c.9-.1 1-.2 1-1V75c0-.9-.1-1-.9-1.1v-.3h4.7c0 .3.1 1 .1 1.5l-.3.1c-.1-.4-.2-.7-.3-.9-.2-.3-.5-.3-1.2-.3h-.7c-.3 0-.4 0-.4.3v2.4h.9c.9 0 1-.1 1.1-.8h.3v2h-.3c-.1-.7-.2-.8-1.1-.8h-.9v2c0 .5.1.7.3.9.2.1.6.1 1.1.1.8 0 1.1-.1 1.3-.3.2-.2.4-.6.5-1h.3zM39 80.5v-.3c.7-.1.7-.2.6-.6-.1-.4-.3-.9-.5-1.6h-2.2c-.2.5-.3.9-.4 1.3-.2.6-.1.7.7.8v.3h-2.3v-.3c.6-.1.7-.1 1.1-1.1l2.2-5.5.4-.1c.7 1.8 1.4 3.8 2 5.6.3.9.5 1 1.2 1.1v.3H39zm-1-5.6c-.4.9-.7 1.8-1 2.6h1.9l-.9-2.6zM48.9 78.8c-.1.3-.3 1.4-.4 1.7h-4.8v-.3c.9-.1 1-.1 1-1V75c0-.9-.1-1-.9-1v-.3h2.8v.3c-.8.1-.9.1-.9 1v4.2c0 .6.1.8.3.9.2.1.5.1 1 .1.6 0 .9-.1 1.2-.3.2-.2.4-.5.5-1l.2-.1zM60.2 78.8c-.1.4-.3 1.4-.4 1.7h-5.1v-.3c.9-.1 1-.2 1-1V75c0-.9-.1-1-.9-1.1v-.3h4.7c0 .3.1 1 .1 1.5l-.3.1c-.1-.4-.2-.7-.3-.9-.1-.3-.4-.3-1.2-.3h-.7c-.3 0-.4 0-.4.3v2.4h.9c.9 0 1-.1 1.1-.8h.3v2h-.3c-.1-.7-.2-.8-1.1-.8h-.9v2c0 .5.1.7.3.9.2.1.6.1 1.1.1.8 0 1.1-.1 1.3-.3.2-.2.4-.6.5-1h.3zM66 75.2c-.2-.7-.5-1.4-1.4-1.4-.8 0-1.2.6-1.2 1.1 0 .7.5 1.1 1.3 1.5.9.4 1.8.9 1.8 2.1 0 1.1-.9 2-2.4 2-.4 0-.8-.1-1-.2-.3-.1-.4-.2-.5-.2-.1-.2-.2-1.1-.3-1.7l.3-.1c.2.7.7 1.7 1.7 1.7.8 0 1.2-.5 1.2-1.2s-.6-1.1-1.4-1.6c-.7-.4-1.8-.9-1.8-2.1 0-1 .8-1.9 2.2-1.9.5 0 1 .1 1.4.3 0 .4.1.8.2 1.5l-.1.2zM74.3 75.3c-.1-.5-.2-.8-.4-1-.2-.2-.4-.3-1.1-.3h-.7v5.2c0 .8.1.9 1.1 1v.3h-3.1v-.3c.9-.1 1-.2 1-1V74h-.6c-.9 0-1.1.1-1.2.3-.1.2-.2.5-.3 1h-.3c0-.7.1-1.4.1-1.9h.2c.1.2.3.3.6.3h4.2c.3 0 .4-.1.5-.3h.2c0 .5.1 1.3.1 1.9h-.3zM80 80.5v-.3c.7-.1.7-.2.6-.6-.1-.4-.3-.9-.5-1.6h-2.2c-.2.5-.3.9-.4 1.3-.2.6-.1.7.7.8v.3h-2.3v-.3c.5-.1.7-.1 1.1-1.1l2.2-5.5.4-.1c.7 1.8 1.4 3.8 2 5.6.3.9.5 1 1.2 1.1v.3H80zm-1-5.6c-.4.9-.7 1.8-1 2.6h1.9l-.9-2.6zM89.6 75.3c-.1-.5-.2-.8-.4-1-.2-.2-.4-.3-1.1-.3h-.7v5.2c0 .8.1.9 1.1 1v.3h-3.1v-.3c.9-.1 1-.2 1-1V74h-.6c-.9 0-1.1.1-1.2.3-.1.2-.2.5-.3 1H84c0-.7.1-1.4.1-1.9h.2c.1.2.3.3.6.3h4.2c.3 0 .4-.1.5-.3h.2c0 .5.1 1.3.1 1.9h-.3zM97.5 78.8c-.1.4-.3 1.4-.4 1.7H92v-.3c.9-.1 1-.2 1-1V75c0-.9-.1-1-.9-1.1v-.3h4.7c0 .3.1 1 .1 1.5l-.3.1c-.1-.4-.2-.7-.3-.9-.2-.3-.5-.3-1.2-.3h-.7c-.4 0-.4 0-.4.3v2.4h1c.9 0 1-.1 1.1-.8h.3v2h-.3c-.1-.7-.2-.8-1.1-.8h-1v2c0 .5.1.7.3.9.2.1.6.1 1.1.1.8 0 1.1-.1 1.3-.3.2-.2.4-.6.5-1h.3z" class="st0"/></g></g></svg>